{
    "asset" : {
        "generator" : "Khronos glTF Blender I/O v1.1.46",
        "version" : "2.0"
    },
    "scene" : 0,
    "scenes" : [
        {
            "name" : "Scene",
            "nodes" : [
                0,
                1,
                3,
                4,
                5,
                6,
                7
            ]
        }
    ],
    "nodes" : [
        {
            "name" : "Light",
            "rotation" : [
                0.16907575726509094,
                0.7558803558349609,
                -0.27217137813568115,
                0.570947527885437
            ],
            "translation" : [
                4.076245307922363,
                5.903861999511719,
                -1.0054539442062378
            ]
        },
        {
            "name" : "Camera",
            "rotation" : [
                0.483536034822464,
                0.33687159419059753,
                -0.20870360732078552,
                0.7804827094078064
            ],
            "translation" : [
                7.358891487121582,
                4.958309173583984,
                6.925790786743164
            ]
        },
        {
            "mesh" : 0,
            "name" : "Object_1"
        },
        {
            "children" : [
                2
            ],
            "name" : "Default",
            "scale" : [
                0.0010000000474974513,
                0.0010000000474974513,
                0.0010000000474974513
            ]
        },
        {
            "name" : "Perspective",
            "rotation" : [
                0.4559175968170166,
                0.4559175968170166,
                0.32502901554107666,
                0.6918340921401978
            ],
            "scale" : [
                0.0010000000474974513,
                0.0010000000474974513,
                0.0010000000474974513
            ],
            "translation" : [
                0.1646285355091095,
                0.2616617679595947,
                0.7057139873504639
            ]
        },
        {
            "name" : "Top",
            "scale" : [
                0.0010000000474974513,
                0.0010000000474974513,
                0.0010000000474974513
            ],
            "translation" : [
                0,
                0.0802123099565506,
                0
            ]
        },
        {
            "name" : "Front",
            "rotation" : [
                0.5000000596046448,
                0.5,
                0.4999999403953552,
                0.4999999701976776
            ],
            "scale" : [
                0.0010000000474974513,
                0.0010000000474974513,
                0.0010000000474974513
            ],
            "translation" : [
                0,
                0,
                0.0802123099565506
            ]
        },
        {
            "name" : "Right",
            "rotation" : [
                -0.7071068286895752,
                0.7071067094802856,
                0,
                -3.090862321641907e-08
            ],
            "scale" : [
                0.0010000000474974513,
                0.0010000000474974513,
                0.0010000000474974513
            ],
            "translation" : [
                0.0900622010231018,
                0,
                0
            ]
        }
    ],
    "materials" : [
        {
            "doubleSided" : true,
            "emissiveFactor" : [
                0,
                0,
                0
            ],
            "name" : "Material_2",
            "pbrMetallicRoughness" : {
                "baseColorFactor" : [
                    0.9803921580314636,
                    0.9803921580314636,
                    0.9803921580314636,
                    1
                ],
                "metallicFactor" : 1,
                "roughnessFactor" : 0.5527864098548889
            }
        }
    ],
    "meshes" : [
        {
            "name" : "Object_1",
            "primitives" : [
                {
                    "attributes" : {
                        "POSITION" : 0,
                        "NORMAL" : 1,
                        "TEXCOORD_0" : 2
                    },
                    "indices" : 3,
                    "material" : 0
                }
            ]
        }
    ],
    "accessors" : [
        {
            "bufferView" : 0,
            "componentType" : 5126,
            "count" : 14773,
            "max" : [
                91.11923217773438,
                81.51969146728516,
                98.89126586914062
            ],
            "min" : [
                -91.11923217773438,
                -81.51969146728516,
                -98.89126586914062
            ],
            "type" : "VEC3"
        },
        {
            "bufferView" : 1,
            "componentType" : 5126,
            "count" : 14773,
            "type" : "VEC3"
        },
        {
            "bufferView" : 2,
            "componentType" : 5126,
            "count" : 14773,
            "type" : "VEC2"
        },
        {
            "bufferView" : 3,
            "componentType" : 5123,
            "count" : 85608,
            "type" : "SCALAR"
        }
    ],
    "bufferViews" : [
        {
            "buffer" : 0,
            "byteLength" : 177276,
            "byteOffset" : 0
        },
        {
            "buffer" : 0,
            "byteLength" : 177276,
            "byteOffset" : 177276
        },
        {
            "buffer" : 0,
            "byteLength" : 118184,
            "byteOffset" : 354552
        },
        {
            "buffer" : 0,
            "byteLength" : 171216,
            "byteOffset" : 472736
        }
    ],
    "buffers" : [
        {
            "byteLength" : 643952,
            "uri" : "data:application/octet-stream;base64,"
        }
    ]
}
